<svg width="32" height="32" viewBox="0 0 32 32" fill="none" xmlns="http://www.w3.org/2000/svg">
<rect width="32" height="32" rx="10" fill="#181B1F"/>
<path d="M24.6816 14.1853C24.8527 13.6778 24.94 13.1463 24.9401 12.6114C24.9401 11.7263 24.7011 10.8571 24.2478 10.0933C23.337 8.52895 21.6474 7.56315 19.8188 7.56315C19.4586 7.56315 19.0993 7.60069 18.7471 7.67514C18.2733 7.14844 17.6917 6.72681 17.0407 6.43806C16.3897 6.14932 15.684 6.00002 14.9703 6H14.9382L14.9262 6.00007C12.7114 6.00007 10.7473 7.41016 10.0665 9.48896C9.36173 9.63138 8.69594 9.92071 8.11369 10.3376C7.53143 10.7544 7.04615 11.2892 6.69032 11.9061C6.23842 12.6746 6.00028 13.5471 6 14.4356C6.00017 15.6841 6.4699 16.8882 7.31823 17.8147C7.14699 18.3222 7.05965 18.8537 7.05958 19.3886C7.05966 20.2737 7.29861 21.1429 7.75188 21.9067C8.2909 22.8327 9.11405 23.5659 10.1026 24.0005C11.0912 24.435 12.1941 24.5486 13.2524 24.3248C13.7262 24.8515 14.3079 25.2731 14.9589 25.5619C15.61 25.8506 16.3156 26 17.0294 26H17.0615L17.0745 25.9999C19.2905 25.9999 21.2539 24.5898 21.9348 22.5091C22.6395 22.3666 23.3053 22.0773 23.8876 21.6604C24.4698 21.2435 24.9552 20.7087 25.311 20.0919C25.7624 19.3241 26.0001 18.4522 26 17.5646C25.9998 16.3161 25.5301 15.112 24.6818 14.1856L24.6816 14.1853ZM17.0628 24.6925H17.0575C16.1708 24.6922 15.3123 24.3853 14.6312 23.8251C14.6716 23.8036 14.7116 23.7812 14.7511 23.758L18.787 21.4578C18.8877 21.4012 18.9714 21.3194 19.0297 21.2205C19.088 21.1217 19.1187 21.0094 19.1187 20.895V15.2771L20.8246 16.249C20.8336 16.2534 20.8413 16.2599 20.8471 16.2679C20.8529 16.276 20.8565 16.2853 20.8578 16.2951V20.9444C20.8555 23.0115 19.1579 24.6883 17.0628 24.6925ZM8.9014 21.2532C8.56803 20.6844 8.39239 20.039 8.39217 19.382C8.39217 19.1677 8.41114 18.9529 8.44808 18.7417C8.47808 18.7595 8.53045 18.791 8.56802 18.8123L12.6039 21.1125C12.7046 21.1705 12.819 21.201 12.9355 21.201C13.052 21.201 13.1664 21.1704 13.267 21.1124L18.1945 18.3051V20.249L18.1945 20.2523C18.1945 20.2617 18.1923 20.2709 18.1881 20.2793C18.1838 20.2876 18.1777 20.2949 18.1701 20.3006L14.0902 22.6249C13.5129 22.9527 12.8585 23.1253 12.1924 23.1255C11.5257 23.1254 10.8706 22.9523 10.293 22.6237C9.71538 22.295 9.23547 21.8223 8.9014 21.253V21.2532ZM7.83963 12.5597C8.2829 11.8 8.98282 11.2183 9.8169 10.9164C9.8169 10.9507 9.81492 11.0115 9.81492 11.0536V15.6541L9.81485 15.6579C9.81487 15.7721 9.84552 15.8843 9.9037 15.9831C9.96188 16.0818 10.0455 16.1636 10.1461 16.2202L15.0735 19.027L13.3677 19.9989C13.3593 20.0044 13.3496 20.0077 13.3396 20.0086C13.3296 20.0095 13.3195 20.008 13.3102 20.0041L9.22983 17.6778C8.65301 17.3481 8.17414 16.8746 7.84122 16.3048C7.5083 15.7349 7.33302 15.0888 7.33295 14.431C7.3332 13.7743 7.50798 13.1291 7.83984 12.5599L7.83963 12.5597ZM21.8552 15.7778L16.9277 12.9706L18.6336 11.9991C18.642 11.9936 18.6517 11.9902 18.6617 11.9893C18.6718 11.9884 18.6819 11.99 18.6912 11.9939L22.7714 14.3182C23.3487 14.6474 23.8281 15.1206 24.1614 15.6904C24.4948 16.2602 24.6703 16.9065 24.6705 17.5644C24.6705 19.1346 23.6774 20.5397 22.1842 21.082V16.344C22.1844 16.3422 22.1844 16.3404 22.1844 16.3387C22.1844 16.2249 22.154 16.1131 22.0961 16.0146C22.0383 15.9161 21.9552 15.8344 21.8552 15.7778ZM23.5531 13.2564C23.5134 13.2324 23.4734 13.2089 23.4332 13.1859L19.3973 10.8856C19.2966 10.8277 19.1823 10.7972 19.0658 10.7972C18.9493 10.7972 18.835 10.8277 18.7343 10.8856L13.8068 13.6928V11.749L13.8068 11.7457C13.8068 11.7267 13.8159 11.7088 13.8312 11.6974L17.9112 9.37508C18.4883 9.0468 19.1427 8.87398 19.8088 8.87395C21.9066 8.87395 23.6078 10.5525 23.6078 12.6224C23.6077 12.8348 23.5894 13.0468 23.5531 13.2562V13.2564ZM12.8794 16.7209L11.1731 15.749C11.1642 15.7446 11.1565 15.7381 11.1507 15.73C11.1449 15.722 11.1412 15.7127 11.1399 15.7029V11.0535C11.1409 8.98476 12.8421 7.30759 14.9389 7.30759C15.827 7.30777 16.687 7.61474 17.3697 8.17522C17.339 8.19177 17.2854 8.22096 17.2498 8.24225L13.2139 10.5425C13.1132 10.599 13.0294 10.6808 12.9712 10.7796C12.9129 10.8784 12.8822 10.9907 12.8822 11.105V11.1087L12.8794 16.7209ZM13.806 14.7496L16.0006 13.4989L18.1952 14.7487V17.2493L16.0006 18.4992L13.806 17.2493V14.7496Z" fill="#FCFDFE"/>
</svg>
