<svg width="40" height="40" viewBox="0 0 40 40" fill="none" xmlns="http://www.w3.org/2000/svg">
<path fill-rule="evenodd" clip-rule="evenodd" d="M20.7753 10.7507C21.9069 9.65773 23.4225 9.05296 24.9957 9.06663C26.5689 9.0803 28.0738 9.71132 29.1862 10.8238C30.2986 11.9362 30.9297 13.4411 30.9433 15.0143C30.957 16.5875 30.3522 18.1031 29.2593 19.2347L29.2471 19.2471L26.2472 22.2469C25.639 22.8554 24.907 23.326 24.1009 23.6267C23.2947 23.9274 22.4334 24.0512 21.5752 23.9897C20.717 23.9283 19.8821 23.683 19.1271 23.2705C18.3721 22.858 17.7146 22.2879 17.1992 21.5989C16.8684 21.1567 16.9588 20.53 17.401 20.1992C17.8433 19.8684 18.47 19.9587 18.8008 20.401C19.1443 20.8603 19.5827 21.2403 20.086 21.5153C20.5894 21.7903 21.146 21.9539 21.7181 21.9949C22.2902 22.0358 22.8644 21.9533 23.4018 21.7528C23.9393 21.5523 24.4273 21.2386 24.8328 20.833L27.8264 17.8393C28.5514 17.0856 28.9525 16.0777 28.9434 15.0316C28.9343 13.9829 28.5136 12.9796 27.772 12.238C27.0304 11.4963 26.0271 11.0757 24.9783 11.0666C23.9318 11.0575 22.9235 11.4589 22.1696 12.1845L20.455 13.8891C20.0634 14.2785 19.4302 14.2767 19.0408 13.885C18.6515 13.4933 18.6533 12.8602 19.045 12.4708L20.765 10.7608L20.7753 10.7507Z" fill="#292D32"/>
<path fill-rule="evenodd" clip-rule="evenodd" d="M15.8992 16.3732C16.7053 16.0725 17.5666 15.9487 18.4248 16.0102C19.283 16.0716 20.1179 16.317 20.8729 16.7295C21.6279 17.142 22.2854 17.712 22.8008 18.401C23.1316 18.8432 23.0412 19.4699 22.599 19.8007C22.1567 20.1315 21.53 20.0412 21.1992 19.5989C20.8557 19.1396 20.4173 18.7596 19.914 18.4846C19.4106 18.2096 18.854 18.0461 18.2819 18.0051C17.7098 17.9641 17.1356 18.0466 16.5982 18.2471C16.0608 18.4476 15.5727 18.7613 15.1672 19.1669L12.1736 22.1606C11.4486 22.9144 11.0475 23.9222 11.0566 24.9683C11.0657 26.0171 11.4864 27.0203 12.228 27.762C12.9696 28.5036 13.9729 28.9243 15.0217 28.9334C16.0677 28.9425 17.0756 28.5414 17.8294 27.8164L19.5329 26.1129C19.9234 25.7223 20.5566 25.7223 20.9471 26.1129C21.3376 26.5034 21.3376 27.1365 20.9471 27.5271L19.2371 29.2371L19.2247 29.2493C18.0931 30.3422 16.5775 30.947 15.0043 30.9333C13.4311 30.9196 11.9263 30.2886 10.8138 29.1762C9.70135 28.0637 9.07034 26.5588 9.05667 24.9857C9.043 23.4125 9.64776 21.8969 10.7407 20.7653L10.7529 20.7529L13.7528 17.753C13.7527 17.753 13.7528 17.7529 13.7528 17.753C14.361 17.1446 15.0931 16.6739 15.8992 16.3732Z" fill="#292D32"/>
</svg>
