<svg width="168" height="48" viewBox="0 0 168 48" fill="none" xmlns="http://www.w3.org/2000/svg">
<path d="M41.0845 35.1835L44.7108 33.1202C45.6755 32.5713 46.2713 31.5469 46.2713 30.437V25.7316L31.431 17.5417V15.2942C31.431 14.1975 32.6076 13.1261 33.5678 13.656L46.2713 20.6667V17.563C46.2713 16.4531 45.6755 15.4287 44.7108 14.8798L33.3289 8.40391C32.3824 7.86536 31.2222 7.86536 30.2756 8.40391L25.6509 11.0352V18.3986L41.0845 27.1797V35.1835Z" fill="#735FFA"/>
<path d="M22.52 12.8165L18.8937 14.8798C17.929 15.4287 17.3332 16.4531 17.3332 17.563L17.3332 22.2684L32.1735 30.4583L32.1735 32.7058C32.1735 33.8025 30.9969 34.8739 30.0367 34.344L17.3332 27.3333L17.3332 30.437C17.3332 31.5469 17.929 32.5713 18.8937 33.1202L30.2755 39.5961C31.2221 40.1346 32.3823 40.1346 33.3289 39.5961L37.9536 36.9648L37.9536 29.6014L22.52 20.8203L22.52 12.8165Z" fill="#BE87FF"/>
<path d="M65.4375 30.6875C63.8125 30.6875 62.5 30.2656 61.5 29.4219C60.5078 28.5703 60.0078 27.4492 60 26.0586H63.4102C63.418 26.6133 63.6172 27.0391 64.0078 27.3359C64.4062 27.6328 64.9297 27.7812 65.5781 27.7812C66.0938 27.7812 66.5273 27.668 66.8789 27.4414C67.2383 27.2148 67.418 26.8945 67.418 26.4805C67.418 26.2695 67.3555 26.0859 67.2305 25.9297C67.1133 25.7734 66.9258 25.6445 66.668 25.543C66.4102 25.4336 66.1562 25.3516 65.9062 25.2969C65.6562 25.2344 65.3281 25.168 64.9219 25.0977C64.5547 25.0352 64.2461 24.9805 63.9961 24.9336C63.7461 24.8789 63.4414 24.8008 63.082 24.6992C62.7305 24.5977 62.4336 24.4883 62.1914 24.3711C61.9492 24.2461 61.6914 24.082 61.418 23.8789C61.1523 23.6758 60.9375 23.4531 60.7734 23.2109C60.6172 22.9609 60.4844 22.6602 60.375 22.3086C60.2734 21.957 60.2227 21.5703 60.2227 21.1484C60.2227 19.9219 60.7031 18.9258 61.6641 18.1602C62.625 17.3867 63.8828 17 65.4375 17C67 17 68.2539 17.3984 69.1992 18.1953C70.1445 18.9844 70.6211 20.0273 70.6289 21.3242H67.3008C67.293 20.8164 67.1172 20.4336 66.7734 20.1758C66.4375 19.918 65.9609 19.7891 65.3438 19.7891C64.8047 19.7891 64.3789 19.9023 64.0664 20.1289C63.7617 20.3555 63.6094 20.6562 63.6094 21.0312C63.6094 21.1719 63.6328 21.3008 63.6797 21.418C63.7344 21.5273 63.8242 21.625 63.9492 21.7109C64.082 21.7891 64.2031 21.8594 64.3125 21.9219C64.4297 21.9766 64.6016 22.0352 64.8281 22.0977C65.0625 22.1523 65.25 22.1953 65.3906 22.2266C65.5391 22.25 65.7617 22.2891 66.0586 22.3438C67.3164 22.5703 68.2227 22.8047 68.7773 23.0469C70.1758 23.6719 70.875 24.7656 70.875 26.3281C70.875 27.6484 70.3789 28.707 69.3867 29.5039C68.3945 30.293 67.0781 30.6875 65.4375 30.6875Z" fill="#181B1F"/>
<path d="M80.4009 17.3633H84.1275L78.4791 30.1484C77.94 31.3672 77.4127 32.3125 76.897 32.9844C76.3892 33.6641 75.7955 34.168 75.1158 34.4961C74.4361 34.832 73.6119 35 72.6431 35H71.2017V31.8477H72.4205C73.2486 31.8477 73.8384 31.6953 74.19 31.3906C74.5494 31.0859 74.9322 30.4336 75.3384 29.4336L75.3853 29.3281L69.9009 17.3633H73.7095L77.1666 25.332L80.4009 17.3633Z" fill="#181B1F"/>
<path d="M91.6964 17.0586C93.1652 17.0586 94.3331 17.5508 95.2003 18.5352C96.0675 19.5117 96.5011 20.8242 96.5011 22.4727V30.3242H92.9972V23.0352C92.9972 21.0977 92.2433 20.1289 90.7355 20.1289C89.837 20.1289 89.1261 20.4336 88.6027 21.043C88.087 21.6445 87.8292 22.4688 87.8292 23.5156V30.3242H84.3253V17.3633H86.7277L87.4073 18.9688C87.9073 18.375 88.5284 17.9102 89.2706 17.5742C90.0206 17.2305 90.8292 17.0586 91.6964 17.0586Z" fill="#181B1F"/>
<path d="M108.711 17.3398H111.336V30.3008H108.582L108.277 29.1406C107.097 30.1719 105.699 30.6875 104.082 30.6875C102.8 30.6875 101.64 30.3906 100.601 29.7969C99.5622 29.2031 98.7497 28.3828 98.1637 27.3359C97.5778 26.2812 97.2848 25.1094 97.2848 23.8203C97.2848 22.5391 97.5778 21.3789 98.1637 20.3398C98.7497 19.293 99.5622 18.4766 100.601 17.8906C101.64 17.2969 102.8 17 104.082 17C105.73 17 107.148 17.5273 108.336 18.582L108.711 17.3398ZM101.832 26.3633C102.504 27.0352 103.347 27.3711 104.363 27.3711C105.379 27.3711 106.218 27.0352 106.882 26.3633C107.554 25.6914 107.89 24.8438 107.89 23.8203C107.89 22.7969 107.554 21.9492 106.882 21.2773C106.218 20.6055 105.379 20.2695 104.363 20.2695C103.347 20.2695 102.504 20.6094 101.832 21.2891C101.168 21.9609 100.836 22.8047 100.836 23.8203C100.836 24.8359 101.168 25.6836 101.832 26.3633Z" fill="#181B1F"/>
<path d="M120.217 17C121.498 17 122.655 17.2969 123.686 17.8906C124.725 18.4766 125.537 19.293 126.123 20.3398C126.709 21.3867 127.002 22.5547 127.002 23.8438C127.002 25.1328 126.709 26.3047 126.123 27.3594C125.537 28.4062 124.725 29.2266 123.686 29.8203C122.655 30.4141 121.498 30.7109 120.217 30.7109C118.905 30.7109 117.717 30.3477 116.655 29.6211V35H113.151V17.3633H115.459L116.057 18.5469C117.221 17.5156 118.608 17 120.217 17ZM117.393 26.3867C118.065 27.0586 118.908 27.3945 119.924 27.3945C120.94 27.3945 121.78 27.0586 122.444 26.3867C123.115 25.7148 123.451 24.8672 123.451 23.8438C123.451 22.8203 123.115 21.9727 122.444 21.3008C121.78 20.6289 120.94 20.293 119.924 20.293C118.908 20.293 118.065 20.6328 117.393 21.3125C116.729 21.9844 116.397 22.8281 116.397 23.8438C116.397 24.8594 116.729 25.707 117.393 26.3867Z" fill="#181B1F"/>
<path d="M132.544 30.6875C130.919 30.6875 129.606 30.2656 128.606 29.4219C127.614 28.5703 127.114 27.4492 127.106 26.0586H130.516C130.524 26.6133 130.723 27.0391 131.114 27.3359C131.512 27.6328 132.036 27.7812 132.684 27.7812C133.2 27.7812 133.634 27.668 133.985 27.4414C134.345 27.2148 134.524 26.8945 134.524 26.4805C134.524 26.2695 134.462 26.0859 134.337 25.9297C134.22 25.7734 134.032 25.6445 133.774 25.543C133.516 25.4336 133.262 25.3516 133.012 25.2969C132.762 25.2344 132.434 25.168 132.028 25.0977C131.661 25.0352 131.352 24.9805 131.102 24.9336C130.852 24.8789 130.548 24.8008 130.188 24.6992C129.837 24.5977 129.54 24.4883 129.298 24.3711C129.055 24.2461 128.798 24.082 128.524 23.8789C128.259 23.6758 128.044 23.4531 127.88 23.2109C127.723 22.9609 127.591 22.6602 127.481 22.3086C127.38 21.957 127.329 21.5703 127.329 21.1484C127.329 19.9219 127.809 18.9258 128.77 18.1602C129.731 17.3867 130.989 17 132.544 17C134.106 17 135.36 17.3984 136.305 18.1953C137.251 18.9844 137.727 20.0273 137.735 21.3242H134.407C134.399 20.8164 134.223 20.4336 133.88 20.1758C133.544 19.918 133.067 19.7891 132.45 19.7891C131.911 19.7891 131.485 19.9023 131.173 20.1289C130.868 20.3555 130.716 20.6562 130.716 21.0312C130.716 21.1719 130.739 21.3008 130.786 21.418C130.841 21.5273 130.93 21.625 131.055 21.7109C131.188 21.7891 131.309 21.8594 131.419 21.9219C131.536 21.9766 131.708 22.0352 131.934 22.0977C132.169 22.1523 132.356 22.1953 132.497 22.2266C132.645 22.25 132.868 22.2891 133.165 22.3438C134.423 22.5703 135.329 22.8047 135.884 23.0469C137.282 23.6719 137.981 24.7656 137.981 26.3281C137.981 27.6484 137.485 28.707 136.493 29.5039C135.501 30.293 134.184 30.6875 132.544 30.6875Z" fill="#181B1F"/>
<path d="M151.574 23.7969C151.574 24.1484 151.55 24.4922 151.503 24.8281H141.695C141.843 25.7109 142.195 26.3906 142.749 26.8672C143.312 27.3359 144.019 27.5703 144.87 27.5703C145.472 27.5703 146.011 27.4375 146.488 27.1719C146.972 26.9062 147.347 26.5391 147.613 26.0703H151.292C150.824 27.4844 150.011 28.6094 148.855 29.4453C147.699 30.2734 146.37 30.6875 144.87 30.6875C143.613 30.6875 142.468 30.3906 141.437 29.7969C140.413 29.1953 139.609 28.3711 139.023 27.3242C138.437 26.2773 138.144 25.1172 138.144 23.8438C138.144 22.5625 138.433 21.3984 139.011 20.3516C139.597 19.3047 140.402 18.4844 141.425 17.8906C142.456 17.2969 143.605 17 144.87 17C146.167 17 147.331 17.3086 148.363 17.9258C149.394 18.5352 150.187 19.3555 150.742 20.3867C151.296 21.418 151.574 22.5547 151.574 23.7969ZM144.87 19.9883C144.097 19.9883 143.441 20.2031 142.902 20.6328C142.363 21.0625 141.992 21.6641 141.788 22.4375H148.07C147.827 21.6484 147.429 21.043 146.874 20.6211C146.327 20.1992 145.66 19.9883 144.87 19.9883Z" fill="#181B1F"/>
</svg>
