<svg width="20" height="20" viewBox="0 0 20 20" fill="none" xmlns="http://www.w3.org/2000/svg">
<path d="M14.8653 1.66663H5.13439C4.69511 1.66661 4.31612 1.6666 4.00398 1.6921C3.67453 1.71902 3.34685 1.77845 3.03153 1.93911C2.56112 2.1788 2.17867 2.56125 1.93899 3.03165C1.77833 3.34697 1.7189 3.67465 1.69198 4.0041C1.66648 4.31624 1.66649 4.6952 1.6665 5.13448V9.90927C1.6665 10.2703 1.6665 10.4508 1.74094 10.6149C1.80121 10.7477 1.92293 10.8894 2.04519 10.969C2.1962 11.0673 2.35199 11.091 2.66358 11.1385C3.16063 11.2142 3.66403 11.2499 4.16647 11.2499C6.9212 11.2499 9.41594 10.1366 11.2253 8.33329H9.99984C9.5396 8.33329 9.1665 7.9602 9.1665 7.49996C9.1665 7.03972 9.5396 6.66663 9.99984 6.66663H13.3332C13.7934 6.66663 14.1665 7.03972 14.1665 7.49996V10.8333C14.1665 11.2935 13.7934 11.6666 13.3332 11.6666C12.8729 11.6666 12.4998 11.2935 12.4998 10.8333V9.41478C10.383 11.5748 7.43147 12.9166 4.16647 12.9166C3.87648 12.9166 3.58885 12.906 3.30397 12.8852C2.66896 12.8387 2.35145 12.8155 2.15994 12.901C1.97682 12.9828 1.86074 13.0907 1.7658 13.2674C1.6665 13.4522 1.6665 13.7361 1.6665 14.3039V14.8654C1.66649 15.3047 1.66648 15.6837 1.69198 15.9958C1.7189 16.3253 1.77833 16.653 1.93899 16.9683C2.17867 17.4387 2.56112 17.8211 3.03153 18.0608C3.34685 18.2215 3.67453 18.2809 4.00398 18.3078C4.31612 18.3333 4.69508 18.3333 5.13437 18.3333H14.8653C15.3046 18.3333 15.6836 18.3333 15.9957 18.3078C16.3251 18.2809 16.6528 18.2215 16.9681 18.0608C17.4386 17.8211 17.821 17.4387 18.0607 16.9683C18.2213 16.653 18.2808 16.3253 18.3077 15.9958C18.3332 15.6837 18.3332 15.3047 18.3332 14.8654V5.13449C18.3332 4.69521 18.3332 4.31624 18.3077 4.0041C18.2808 3.67465 18.2213 3.34697 18.0607 3.03165C17.821 2.56125 17.4386 2.1788 16.9681 1.93911C16.6528 1.77845 16.3251 1.71902 15.9957 1.6921C15.6836 1.6666 15.3046 1.66661 14.8653 1.66663Z" fill="#735FFA"/>
</svg>
