<svg width="40" height="40" viewBox="0 0 40 40" fill="none" xmlns="http://www.w3.org/2000/svg">
<rect width="40" height="40" rx="12" fill="#8E55EA" fill-opacity="0.15"/>
<path d="M26 10C23.7909 10 22 11.7909 22 14C22 16.2091 23.7909 18 26 18C28.2091 18 30 16.2091 30 14C30 11.7909 28.2091 10 26 10Z" fill="#735FFA"/>
<path d="M25.7662 19.9553C25.2757 19.7519 24.7244 19.7519 24.2339 19.9553C23.8628 20.1092 23.6091 20.3766 23.4262 20.6034C23.2654 20.8028 23.0933 21.0575 22.9089 21.3338L20.1154 17.2987C19.9137 17.0074 19.7258 16.7359 19.5514 16.527C19.3682 16.3077 19.1166 16.0518 18.7532 15.9041C18.2703 15.7078 17.7298 15.7078 17.2469 15.9041C16.8834 16.0518 16.6318 16.3077 16.4486 16.527C16.2742 16.7359 16.0863 17.0074 15.8846 17.2987L9.89126 25.9558C9.63101 26.3317 9.39769 26.6687 9.23616 26.9546C9.07526 27.2394 8.88892 27.6326 8.91082 28.0947C8.93874 28.6837 9.22518 29.2304 9.69359 29.5887C10.061 29.8697 10.4904 29.9403 10.8162 29.9701C11.1432 30.0001 11.553 30 12.0101 30L27 30C27.0036 30 27.0072 30 27.0107 30L28.0537 30C28.5021 30 28.9052 30 29.2277 29.9705C29.5503 29.9409 29.9735 29.8708 30.3381 29.595C30.8045 29.2422 31.0931 28.7029 31.128 28.1192C31.1552 27.6628 30.9788 27.2718 30.8244 26.9869C30.6702 26.7023 30.4465 26.3668 30.1977 25.9937L27.1412 21.409C26.9378 21.1038 26.7491 20.8207 26.5739 20.6034C26.3909 20.3766 26.1373 20.1092 25.7662 19.9553Z" fill="#735FFA"/>
</svg>
