<svg width="32" height="32" viewBox="0 0 32 32" fill="none" xmlns="http://www.w3.org/2000/svg">
<g id="Frame 38">
<path id="Subtract" d="M25.0845 27.1835L28.7108 25.1202C29.6755 24.5713 30.2713 23.5469 30.2713 22.437V17.7316L15.431 9.54174V7.29417C15.431 6.19749 16.6076 5.12613 17.5678 5.65601L30.2713 12.6667V9.56301C30.2713 8.45312 29.6755 7.42866 28.7108 6.87979L17.3289 0.403908C16.3824 -0.134637 15.2222 -0.134636 14.2756 0.403909L9.65088 3.03523V10.3986L25.0845 19.1797V27.1835Z" fill="#735FFA"/>
<path id="Subtract_2" d="M6.52003 4.81653L2.89369 6.87979C1.92901 7.42866 1.33322 8.45313 1.33322 9.56302L1.33322 14.2684L16.1735 22.4583L16.1735 24.7058C16.1735 25.8025 14.9969 26.8739 14.0367 26.344L1.33322 19.3333L1.33322 22.437C1.33322 23.5469 1.92901 24.5713 2.89369 25.1202L14.2755 31.5961C15.2221 32.1346 16.3823 32.1346 17.3289 31.5961L21.9536 28.9648L21.9536 21.6014L6.52003 12.8203L6.52003 4.81653Z" fill="#BE87FF"/>
</g>
</svg>
