<svg width="40" height="40" viewBox="0 0 40 40" fill="none" xmlns="http://www.w3.org/2000/svg">
<path fill-rule="evenodd" clip-rule="evenodd" d="M18 20C18 18.8954 18.8954 18 20 18C21.1046 18 22 18.8954 22 20C22 21.1046 21.1046 22 20 22C18.8954 22 18 21.1046 18 20Z" fill="#181B1F"/>
<path fill-rule="evenodd" clip-rule="evenodd" d="M25 20C25 18.8954 25.8954 18 27 18C28.1046 18 29 18.8954 29 20C29 21.1046 28.1046 22 27 22C25.8954 22 25 21.1046 25 20Z" fill="#181B1F"/>
<path fill-rule="evenodd" clip-rule="evenodd" d="M11 20C11 18.8954 11.8954 18 13 18C14.1046 18 15 18.8954 15 20C15 21.1046 14.1046 22 13 22C11.8954 22 11 21.1046 11 20Z" fill="#181B1F"/>
</svg>
