<svg width="25" height="24" viewBox="0 0 25 24" fill="none" xmlns="http://www.w3.org/2000/svg">
<path d="M6 2C6 1.44772 5.55228 1 5 1C4.44772 1 4 1.44772 4 2V3.5H2.5C1.94772 3.5 1.5 3.94772 1.5 4.5C1.5 5.05228 1.94772 5.5 2.5 5.5H4V7C4 7.55228 4.44772 8 5 8C5.55228 8 6 7.55228 6 7V5.5H7.5C8.05228 5.5 8.5 5.05228 8.5 4.5C8.5 3.94772 8.05228 3.5 7.5 3.5H6V2Z" fill="#FCFDFE"/>
<path d="M6 17C6 16.4477 5.55228 16 5 16C4.44772 16 4 16.4477 4 17V18.5H2.5C1.94772 18.5 1.5 18.9477 1.5 19.5C1.5 20.0523 1.94772 20.5 2.5 20.5H4V22C4 22.5523 4.44772 23 5 23C5.55228 23 6 22.5523 6 22V20.5H7.5C8.05228 20.5 8.5 20.0523 8.5 19.5C8.5 18.9477 8.05228 18.5 7.5 18.5H6V17Z" fill="#FCFDFE"/>
<path d="M14.4333 2.64102C14.2848 2.25483 13.9138 2 13.5 2C13.0862 2 12.7152 2.25483 12.5667 2.64102L10.8325 7.14988C10.5321 7.93093 10.4377 8.156 10.3086 8.33759C10.179 8.5198 10.0198 8.67899 9.83759 8.80855C9.656 8.93768 9.43093 9.03207 8.64988 9.33248L4.14102 11.0667C3.75483 11.2152 3.5 11.5862 3.5 12C3.5 12.4138 3.75483 12.7848 4.14102 12.9333L8.64988 14.6675C9.43093 14.9679 9.656 15.0623 9.83759 15.1914C10.0198 15.321 10.179 15.4802 10.3086 15.6624C10.4377 15.844 10.5321 16.0691 10.8325 16.8501L12.5667 21.359C12.7152 21.7452 13.0862 22 13.5 22C13.9138 22 14.2848 21.7452 14.4333 21.359L16.1675 16.8501C16.4679 16.0691 16.5623 15.844 16.6914 15.6624C16.821 15.4802 16.9802 15.321 17.1624 15.1914C17.344 15.0623 17.5691 14.9679 18.3501 14.6675L22.859 12.9333C23.2452 12.7848 23.5 12.4138 23.5 12C23.5 11.5862 23.2452 11.2152 22.859 11.0667L18.3501 9.33248C17.5691 9.03207 17.344 8.93768 17.1624 8.80855C16.9802 8.67899 16.821 8.5198 16.6914 8.33759C16.5623 8.156 16.4679 7.93093 16.1675 7.14988L14.4333 2.64102Z" fill="#FCFDFE"/>
</svg>
