<svg width="32" height="32" viewBox="0 0 32 32" fill="none" xmlns="http://www.w3.org/2000/svg">
<path d="M19.9333 5.64102C19.7848 5.25483 19.4138 5 19 5C18.5862 5 18.2152 5.25483 18.0667 5.64102L16.888 8.70544C16.5876 9.48648 16.4932 9.71155 16.3641 9.89315C16.2345 10.0754 16.0754 10.2345 15.8931 10.3641C15.7116 10.4932 15.4865 10.5876 14.7054 10.888L11.641 12.0667C11.2548 12.2152 11 12.5862 11 13C11 13.4138 11.2548 13.7848 11.641 13.9333L14.7054 15.112C15.4865 15.4124 15.7116 15.5068 15.8931 15.6359C16.0754 15.7655 16.2345 15.9246 16.3641 16.1069C16.4932 16.2884 16.5876 16.5135 16.888 17.2946L18.0667 20.359C18.2152 20.7452 18.5862 21 19 21C19.4138 21 19.7848 20.7452 19.9333 20.359L21.112 17.2946C21.4124 16.5135 21.5068 16.2884 21.6359 16.1069C21.7655 15.9246 21.9246 15.7655 22.1069 15.6359C22.2884 15.5068 22.5135 15.4124 23.2946 15.112L26.359 13.9333C26.7452 13.7848 27 13.4138 27 13C27 12.5862 26.7452 12.2152 26.359 12.0667L23.2946 10.888C22.5135 10.5876 22.2884 10.4932 22.1069 10.3641C21.9246 10.2345 21.7654 10.0754 21.6359 9.89315C21.5068 9.71155 21.4124 9.48648 21.112 8.70544L19.9333 5.64102Z" fill="#BE87FF"/>
<path d="M11.3944 16.5528C11.225 16.214 10.8788 16 10.5 16C10.1212 16 9.77496 16.214 9.60557 16.5528L8.82111 18.1217C8.53863 18.6867 8.45255 18.8493 8.34796 18.9849C8.24305 19.121 8.12104 19.243 7.98494 19.348C7.84925 19.4525 7.68667 19.5386 7.1217 19.8211L5.55279 20.6056C5.214 20.775 5 21.1212 5 21.5C5 21.8788 5.214 22.225 5.55279 22.3944L7.1217 23.1789C7.68667 23.4614 7.84925 23.5475 7.98494 23.652C8.12104 23.757 8.24305 23.879 8.34796 24.0151C8.45255 24.1507 8.53863 24.3133 8.82111 24.8783L9.60557 26.4472C9.77497 26.786 10.1212 27 10.5 27C10.8788 27 11.225 26.786 11.3944 26.4472L12.1789 24.8783C12.4614 24.3133 12.5475 24.1507 12.652 24.0151C12.757 23.879 12.879 23.757 13.0151 23.652C13.1507 23.5475 13.3133 23.4614 13.8783 23.1789L15.4472 22.3944C15.786 22.225 16 21.8788 16 21.5C16 21.1212 15.786 20.775 15.4472 20.6056L13.8783 19.8211C13.3133 19.5386 13.1507 19.4525 13.0151 19.348C12.879 19.243 12.757 19.121 12.652 18.9849C12.5475 18.8493 12.4614 18.6867 12.1789 18.1217L11.3944 16.5528Z" fill="#BE87FF"/>
</svg>
