<svg width="32" height="32" viewBox="0 0 32 32" fill="none" xmlns="http://www.w3.org/2000/svg">
<path fill-rule="evenodd" clip-rule="evenodd" d="M15.9999 1.33325C7.89974 1.33325 1.33325 7.89974 1.33325 15.9999C1.33325 24.1001 7.89974 30.6666 15.9999 30.6666C24.1001 30.6666 30.6666 24.1001 30.6666 15.9999C30.6666 7.89974 24.1001 1.33325 15.9999 1.33325ZM9.72378 15.0571L15.0571 9.72378C15.5778 9.20308 16.422 9.20308 16.9427 9.72378L22.2761 15.0571C22.7968 15.5778 22.7968 16.422 22.2761 16.9427C21.7554 17.4634 20.9111 17.4634 20.3904 16.9427L17.3333 13.8855V21.3333C17.3333 22.0696 16.7363 22.6666 15.9999 22.6666C15.2635 22.6666 14.6666 22.0696 14.6666 21.3333V13.8855L11.6094 16.9427C11.0887 17.4634 10.2445 17.4634 9.72378 16.9427C9.20308 16.422 9.20308 15.5778 9.72378 15.0571Z" fill="url(#paint0_linear_1_462)"/>
<defs>
<linearGradient id="paint0_linear_1_462" x1="15.9999" y1="1.33325" x2="15.9999" y2="30.6666" gradientUnits="userSpaceOnUse">
<stop stop-color="#9A77FF"/>
<stop offset="1" stop-color="#735FFA"/>
</linearGradient>
</defs>
</svg>
