<svg width="56" height="56" viewBox="0 0 56 56" fill="none" xmlns="http://www.w3.org/2000/svg">
<rect width="56" height="56" rx="14" fill="#4BAB71"/>
<path fill-rule="evenodd" clip-rule="evenodd" d="M28.3219 17.3333H21.0118C19.9385 17.3333 19.0527 17.3333 18.3311 17.3922C17.5816 17.4535 16.8927 17.5849 16.2455 17.9146C15.242 18.4259 14.4261 19.2418 13.9148 20.2454C13.5851 20.8925 13.4537 21.5814 13.3924 22.3309C13.3335 23.0525 13.3335 23.9383 13.3335 25.0116V30.9884C13.3335 32.0617 13.3335 32.9475 13.3924 33.6691C13.4537 34.4185 13.5851 35.1075 13.9148 35.7546C14.4261 36.7581 15.242 37.574 16.2455 38.0854C16.8927 38.4151 17.5816 38.5465 18.3311 38.6077C19.0527 38.6667 19.9385 38.6667 21.0118 38.6666H28.3219C29.3952 38.6667 30.281 38.6667 31.0026 38.6077C31.7521 38.5465 32.441 38.4151 33.0881 38.0854C34.0916 37.574 34.9075 36.7581 35.4189 35.7546C35.7486 35.1075 35.88 34.4185 35.9412 33.6691C35.9959 32.9998 35.9999 32.1892 36.0001 31.2188L38.6049 33.8236C38.8598 34.0785 39.1103 34.3291 39.3299 34.513C39.5258 34.677 39.9384 35.0059 40.5099 35.0509C41.1481 35.1011 41.7719 34.8428 42.1876 34.356C42.56 33.92 42.6191 33.3957 42.6417 33.1412C42.6669 32.8559 42.6669 32.5016 42.6668 32.1411V23.8587C42.6669 23.4982 42.6669 23.1439 42.6417 22.8586C42.6191 22.6041 42.56 22.0797 42.1876 21.6438C41.7719 21.157 41.1481 20.8986 40.5099 20.9489C39.9384 20.9938 39.5258 21.3228 39.3299 21.4868C39.1103 21.6707 38.8598 21.9212 38.6049 22.1761L36.0001 24.781C35.9999 23.8106 35.9959 23.0001 35.9412 22.3309C35.88 21.5814 35.7486 20.8925 35.4189 20.2454C34.9075 19.2418 34.0916 18.4259 33.0881 17.9146C32.441 17.5849 31.7521 17.4535 31.0026 17.3922C30.281 17.3333 29.3952 17.3333 28.3219 17.3333Z" fill="#FCFDFE"/>
</svg>
