<svg width="103" height="97" viewBox="0 0 103 97" fill="none" xmlns="http://www.w3.org/2000/svg">
<path d="M35.171 10H67.829C70.9281 9.99995 73.4859 9.99991 75.5695 10.1702C77.7336 10.347 79.7229 10.7264 81.5914 11.6785C84.4891 13.155 86.845 15.5109 88.3215 18.4085C89.2736 20.2771 89.653 22.2664 89.8298 24.4305C90.0001 26.5141 90 29.0718 90 32.1709V64.8291C90 67.9282 90.0001 70.4859 89.8298 72.5695C89.653 74.7336 89.2736 76.7229 88.3215 78.5914C86.845 81.4891 84.4891 83.845 81.5914 85.3215C79.7229 86.2736 77.7336 86.653 75.5695 86.8298C73.4859 87.0001 70.9282 87 67.8291 87H66.9C64.7737 87 63.05 85.2763 63.05 83.15C63.05 81.0237 64.7737 79.3 66.9 79.3H67.67C70.9678 79.3 73.2097 79.297 74.9425 79.1554C76.6304 79.0175 77.4936 78.7675 78.0957 78.4607C79.5446 77.7225 80.7225 76.5446 81.4607 75.0957C81.7675 74.4936 82.0175 73.6304 82.1554 71.9425C82.297 70.2096 82.3 67.9678 82.3 64.67V32.33C82.3 29.0322 82.297 26.7903 82.1554 25.0575C82.0175 23.3696 81.7675 22.5064 81.4607 21.9043C80.7225 20.4554 79.5446 19.2775 78.0957 18.5393C77.4936 18.2324 76.6304 17.9825 74.9425 17.8446C73.2097 17.703 70.9678 17.7 67.67 17.7H35.33C32.0322 17.7 29.7903 17.703 28.0575 17.8446C26.3696 17.9825 25.5064 18.2324 24.9043 18.5393C23.4554 19.2775 22.2775 20.4554 21.5393 21.9043C21.2324 22.5064 20.9825 23.3696 20.8446 25.0575C20.703 26.7903 20.7 29.0322 20.7 32.33V33.1C20.7 35.2263 18.9763 36.95 16.85 36.95C14.7237 36.95 13 35.2263 13 33.1V32.171C13 29.0719 12.9999 26.5141 13.1702 24.4305C13.347 22.2664 13.7264 20.2771 14.6785 18.4085C16.155 15.5109 18.5109 13.155 21.4086 11.6785C23.2771 10.7264 25.2664 10.347 27.4305 10.1702C29.5141 9.99991 32.0719 9.99995 35.171 10Z" fill="white"/>
<path d="M39.3284 44.65H29.0216C26.9921 44.6499 25.2413 44.6499 23.7992 44.7677C22.2771 44.892 20.7632 45.1666 19.3064 45.9089C17.1331 47.0162 15.3662 48.7831 14.2589 50.9564C13.5166 52.4132 13.2421 53.9271 13.1177 55.4491C12.9999 56.8912 12.9999 58.642 13 60.6714V70.9784C12.9999 73.0078 12.9999 74.7588 13.1177 76.2009C13.2421 77.7229 13.5166 79.2368 14.2589 80.6936C15.3662 82.8669 17.1331 84.6338 19.3064 85.7411C20.7632 86.4834 22.2771 86.7579 23.7992 86.8823C25.2411 87.0001 26.9918 87.0001 29.0211 87H39.3283C41.3576 87.0001 43.1089 87.0001 44.5509 86.8823C46.0729 86.7579 47.5868 86.4834 49.0436 85.7411C51.2169 84.6338 52.9838 82.8669 54.0911 80.6936C54.8334 79.2368 55.108 77.7229 55.2323 76.2009C55.3501 74.7588 55.3501 73.0079 55.35 70.9784V60.6717C55.3501 58.6422 55.3501 56.8912 55.2323 55.4491C55.1155 54.0197 54.8663 52.5976 54.2216 51.2231L66.9 38.5447V48.5C66.9 50.6263 68.6237 52.35 70.75 52.35C72.8763 52.35 74.6 50.6263 74.6 48.5V29.25C74.6 27.1237 72.8763 25.4 70.75 25.4H51.5C49.3737 25.4 47.65 27.1237 47.65 29.25C47.65 31.3763 49.3737 33.1 51.5 33.1H61.4553L48.7769 45.7784C47.4024 45.1337 45.9803 44.8845 44.5509 44.7677C43.1088 44.6499 41.3579 44.6499 39.3284 44.65Z" fill="white"/>
</svg>
