<svg width="103" height="99" viewBox="0 0 103 99" fill="none" xmlns="http://www.w3.org/2000/svg">
<path d="M88.625 35.75C78.9126 35.75 62.7636 35.75 57.4101 35.75C56.2675 35.75 55.1907 35.2614 54.4316 34.4075L34.8184 12.3425C34.0593 11.4886 32.9713 11 31.8287 11H17C14.7909 11 13 12.7909 13 15V84C13 86.2091 14.7909 88 17 88H86C88.2091 88 90 86.2091 90 84V66M88.625 35.75C86.3119 33.5195 82.5962 28.875 82.5962 28.875M88.625 35.75C86.3119 37.5674 82.5962 41.25 82.5962 41.25" stroke="white" stroke-width="7" stroke-linecap="round"/>
<path d="M32 11L57.2377 20.7696C57.6982 20.9479 58.1878 21.0394 58.6817 21.0394H74M74 21.0394L67.5738 14.4252M74 21.0394L67.5738 26" stroke="white" stroke-width="7" stroke-linecap="round"/>
<path d="M77.5216 63.3979C77.2535 63.3979 77.0269 63.2038 76.9619 62.9437C76.755 62.1147 76.3588 61.2331 75.7734 60.299C75.0799 59.1774 74.0911 58.1371 72.8073 57.1779C71.6907 56.3339 70.574 55.7584 69.4574 55.4514C69.193 55.3787 69 55.1442 69 54.8699C69 54.601 69.1855 54.3692 69.4441 54.2954C70.5389 53.9828 71.5935 53.4753 72.6081 52.7729C73.7739 51.9613 74.7478 50.9874 75.5299 49.8511C76.2218 48.8389 76.6968 47.8377 76.9548 46.8478C77.0224 46.5884 77.2507 46.3979 77.5188 46.3979C77.7898 46.3979 78.0197 46.5926 78.0857 46.8555C78.2346 47.449 78.4673 48.0565 78.7838 48.6779C79.1823 49.4453 79.6914 50.1831 80.3112 50.8914C80.9457 51.585 81.6541 52.2122 82.4362 52.7729C83.4582 53.4974 84.4972 54.0064 85.5532 54.2999C85.8123 54.3719 86 54.6025 86 54.8714C86 55.1443 85.8066 55.3768 85.5435 55.449C84.8741 55.6325 84.1851 55.9285 83.4766 56.3367C82.6207 56.8385 81.8238 57.4361 81.0859 58.1297C80.3481 58.8085 79.7431 59.5242 79.2708 60.2768C78.6843 61.2129 78.2877 62.1013 78.0811 62.9423C78.0171 63.2031 77.7901 63.3979 77.5216 63.3979Z" fill="white"/>
<path d="M60.5368 82.136C60.0795 82.136 59.6929 81.8177 59.5821 81.3912C59.2291 80.0319 58.5533 78.5864 57.5547 77.0549C56.3715 75.2159 54.6849 73.5102 52.4948 71.9374C50.59 70.5536 48.6851 69.6099 46.7803 69.1065C46.3292 68.9874 46 68.6029 46 68.1531C46 67.7122 46.3165 67.3322 46.7576 67.2111C48.6252 66.6986 50.4243 65.8665 52.1549 64.7149C54.1437 63.3841 55.8051 61.7872 57.1393 59.9241C58.3196 58.2644 59.1299 56.6229 59.57 54.9998C59.6853 54.5745 60.0748 54.2622 60.532 54.2622C60.9943 54.2622 61.3865 54.5814 61.499 55.0125C61.7531 55.9856 62.1501 56.9816 62.6901 58.0005C63.3698 59.2587 64.2382 60.4685 65.2956 61.6299C66.378 62.7671 67.5864 63.7954 68.9206 64.7149C70.6641 65.9027 72.4364 66.7373 74.2379 67.2185C74.6798 67.3365 75 67.7147 75 68.1555C75 68.603 74.6701 68.9843 74.2212 69.1026C73.0793 69.4035 71.904 69.8888 70.6954 70.5582C69.2352 71.3809 67.8759 72.3608 66.6171 73.498C65.3585 74.611 64.3264 75.7845 63.5208 77.0185C62.5203 78.5532 61.8437 80.0099 61.4914 81.3888C61.382 81.8166 60.9949 82.136 60.5368 82.136Z" fill="white"/>
<path d="M38.5444 69.6408C37.9925 69.6408 37.5259 69.2566 37.3922 68.7419C36.9662 67.1014 36.1505 65.3568 34.9453 63.5084C33.5174 61.289 31.4818 59.2303 28.8385 57.3321C26.5396 55.662 24.2407 54.5231 21.9417 53.9156C21.3973 53.7718 21 53.3077 21 52.7649C21 52.2328 21.382 51.7741 21.9143 51.628C24.1683 51.0094 26.3396 50.0052 28.4284 48.6153C30.8286 47.0092 32.8338 45.0818 34.444 42.8333C35.8685 40.8302 36.8464 38.8492 37.3776 36.8901C37.5168 36.3769 37.9868 36 38.5387 36C39.0966 36 39.57 36.3853 39.7057 36.9055C40.0124 38.0799 40.4915 39.282 41.1432 40.5117C41.9636 42.0302 43.0117 43.4903 44.2878 44.892C45.5941 46.2645 47.0526 47.5056 48.6628 48.6153C50.767 50.0489 52.906 51.0561 55.0802 51.6369C55.6136 51.7794 56 52.2358 56 52.7678C56 53.3078 55.6019 53.768 55.0601 53.9109C53.6819 54.274 52.2634 54.8597 50.8048 55.6676C49.0425 56.6605 47.4019 57.8431 45.8827 59.2157C44.3637 60.5589 43.1181 61.9752 42.1458 63.4645C40.9383 65.3168 40.1217 67.0748 39.6965 68.739C39.5645 69.2553 39.0973 69.6408 38.5444 69.6408Z" fill="white"/>
</svg>
