<svg width="36" height="36" viewBox="0 0 36 36" fill="none" xmlns="http://www.w3.org/2000/svg">
<path fill-rule="evenodd" clip-rule="evenodd" d="M24 7C24.3788 7 24.725 7.214 24.8944 7.55279L25.5122 8.78837C25.7947 9.35334 25.8808 9.51592 25.9854 9.65161C26.0903 9.78771 26.2123 9.90972 26.3484 10.0146C26.4841 10.1192 26.6467 10.2053 27.2116 10.4878L28.4472 11.1056C28.786 11.275 29 11.6212 29 12C29 12.3788 28.786 12.725 28.4472 12.8944L27.2116 13.5122C26.6467 13.7947 26.4841 13.8808 26.3484 13.9854C26.2123 14.0903 26.0903 14.2123 25.9854 14.3484C25.8808 14.4841 25.7947 14.6467 25.5122 15.2116L24.8944 16.4472C24.725 16.786 24.3788 17 24 17C23.6212 17 23.275 16.786 23.1056 16.4472L22.4878 15.2116C22.2053 14.6467 22.1192 14.4841 22.0146 14.3484C21.9097 14.2123 21.7877 14.0903 21.6516 13.9854C21.5159 13.8808 21.3533 13.7947 20.7884 13.5122L19.5528 12.8944C19.214 12.725 19 12.3788 19 12C19 11.6212 19.214 11.275 19.5528 11.1056L20.7884 10.4878C21.3533 10.2053 21.5159 10.1192 21.6516 10.0146C21.7877 9.90972 21.9097 9.78771 22.0146 9.65161C22.1192 9.51592 22.2053 9.35334 22.4878 8.78837L23.1056 7.55279C23.275 7.214 23.6212 7 24 7ZM24 10.2279C23.8716 10.4704 23.7477 10.6793 23.5986 10.8726C23.3888 11.1448 23.1448 11.3888 22.8726 11.5986C22.6793 11.7477 22.4704 11.8716 22.2279 12C22.4704 12.1284 22.6793 12.2523 22.8726 12.4014C23.1448 12.6112 23.3888 12.8552 23.5986 13.1274C23.7477 13.3207 23.8716 13.5296 24 13.7721C24.1284 13.5296 24.2523 13.3207 24.4014 13.1274C24.6112 12.8552 24.8552 12.6112 25.1274 12.4014C25.3207 12.2523 25.5296 12.1284 25.7721 12C25.5296 11.8716 25.3207 11.7477 25.1274 11.5986C24.8552 11.3888 24.6112 11.1448 24.4014 10.8726C24.2523 10.6793 24.1284 10.4704 24 10.2279Z" fill="#181B1F"/>
<path d="M17.1067 9.86882C17.5161 9.63545 17.7071 9.14787 17.565 8.69851C17.4229 8.24916 16.9863 7.96002 16.5171 8.0045C11.1769 8.51084 7 13.0063 7 18.4786C7 24.2894 11.7106 29 17.5215 29C22.9935 29 27.4888 24.8236 27.9955 19.4838C28.0401 19.0146 27.7509 18.578 27.3016 18.4359C26.8523 18.2938 26.3647 18.4846 26.1313 18.8941C24.9909 20.8945 22.8409 22.2395 20.3779 22.2395C16.7234 22.2395 13.7607 19.2769 13.7607 15.6224C13.7607 13.1593 15.106 11.0091 17.1067 9.86882Z" fill="#181B1F"/>
</svg>
